<?xml version="1.0" encoding="utf-8"?>
<!DOCTYPE svg PUBLIC "-//W3C//DTD SVG 20010904//EN" "http://www.w3.org/TR/2001/REC-SVG-20010904/DTD/svg10.dtd">
<svg version="1.0" xmlns="http://www.w3.org/2000/svg" width="50pt" height="50pt" viewBox="0 0 50 50" style="" preserveAspectRatio="xMidYMid meet">
<g fill="#FF0000FF" stroke="#FF0000FF">
<path d="M 3.000 3.000 C 1.133 4.867 1.000 6.333 1.000 25.000 C 1.000 43.667 1.133 45.133 3.000 47.000 C 4.867 48.867 6.333 49.000 25.000 49.000 C 43.667 49.000 45.133 48.867 47.000 47.000 C 48.867 45.133 49.000 43.667 49.000 25.000 C 49.000 6.333 48.867 4.867 47.000 3.000 C 45.133 1.133 43.667 1.000 25.000 1.000 C 6.333 1.000 4.867 1.133 3.000 3.000 M 28.000 23.800 C 28.000 37.089 27.648 42.952 26.800 43.800 C 25.404 45.196 15.000 45.444 15.000 44.082 C 15.000 43.577 14.727 42.452 14.393 41.582 C 13.900 40.298 14.559 40.000 17.893 40.000 L 22.000 40.000 22.000 23.167 C 22.000 13.908 22.300 6.033 22.667 5.667 C 23.033 5.300 24.383 5.000 25.667 5.000 L 28.000 5.000 28.000 23.800 M 41.243 20.784 C 44.997 27.734 47.152 36.000 45.210 36.000 C 44.634 36.000 43.529 36.244 42.753 36.541 C 41.769 36.919 40.952 35.782 40.057 32.791 C 39.351 30.431 37.426 25.829 35.779 22.565 C 32.940 16.939 32.878 16.562 34.583 15.315 C 35.573 14.592 36.652 14.000 36.981 14.000 C 37.310 14.000 39.228 17.053 41.243 20.784 M 17.000 15.935 C 17.000 20.185 10.024 36.000 8.149 36.000 C 7.727 36.000 6.546 35.388 5.523 34.640 C 3.719 33.322 3.726 33.194 5.736 30.370 C 7.455 27.956 9.126 23.621 11.516 15.374 C 11.860 14.187 17.000 14.713 17.000 15.935 "/></g>
<g fill="#FFFFFFFF" stroke="#FFFFFFFF">
<path d="M 23.000 23.500 L 23.000 41.000 19.094 41.000 C 15.684 41.000 15.254 41.253 15.709 42.993 C 16.157 44.707 16.811 44.906 20.365 44.410 C 22.639 44.093 25.063 43.660 25.750 43.448 C 26.691 43.158 27.000 38.484 27.000 24.531 C 27.000 6.667 26.928 6.000 25.000 6.000 C 23.076 6.000 23.000 6.667 23.000 23.500 "/></g>
<g fill="#FFFFFFFF" stroke="#FFFFFFFF">
<path d="M 35.166 15.877 C 34.104 16.550 34.433 17.925 36.778 22.611 C 38.399 25.850 40.256 30.140 40.906 32.145 C 41.819 34.966 42.509 35.680 43.957 35.301 C 45.781 34.824 45.779 34.672 43.909 29.236 C 42.311 24.591 37.435 14.962 36.708 15.015 C 36.594 15.024 35.899 15.411 35.166 15.877 "/></g>
<g fill="#FFFFFFFF" stroke="#FFFFFFFF">
<path d="M 11.084 20.250 C 10.407 22.588 8.778 26.596 7.465 29.158 C 5.299 33.382 5.234 33.876 6.762 34.462 C 8.859 35.267 10.375 33.287 12.970 26.351 C 16.317 17.406 16.493 16.000 14.267 16.000 C 12.832 16.000 11.991 17.124 11.084 20.250 "/></g>
<g fill="#FF9393FF" stroke="#FF9393FF">
<path d="M 15.387 16.157 C 16.776 16.963 17.090 16.955 16.578 16.126 C 16.195 15.507 15.346 15.014 14.691 15.030 C 14.036 15.047 14.349 15.554 15.387 16.157 "/></g>
</svg>
